<svg xmlns="http://www.w3.org/2000/svg" version="1.0" preserveAspectRatio="xMidYMid meet" viewBox="142.04 127 295.56 131.2">

<g transform="translate(0.000000,386.000000) scale(0.100000,-0.100000)" fill="#000000" stroke="none">
<path d="M2024 2574 c-300 -50 -521 -231 -584 -479 -89 -348 132 -678 529 -788 70 -19 107 -21 496 -25 l420 -4 -2 325 c-2 301 -4 327 -23 371 -11 26 -23 65 -26 87 l-7 39 -276 0 -276 0 -118 -140 c-64 -77 -117 -142 -117 -145 0 -3 99 -5 220 -5 l220 0 0 -95 0 -95 -172 0 c-218 0 -297 20 -387 96 -77 64 -111 192 -81 300 18 63 79 137 143 174 94 53 151 60 511 60 l326 0 6 28 c29 127 57 185 126 259 l51 53 -449 -1 c-329 -1 -471 -5 -530 -15z"/>
<path d="M3361 2578 c-187 -26 -322 -115 -370 -242 -71 -189 -7 -380 153 -463 104 -53 121 -55 456 -62 236 -5 322 -10 342 -20 51 -26 60 -108 16 -148 -18 -17 -51 -18 -401 -23 l-382 -5 -127 -165 -128 -165 492 -3 c540 -2 603 2 735 55 90 36 170 114 203 198 34 88 35 248 1 322 -27 60 -94 126 -155 154 -103 45 -148 51 -477 58 -292 5 -319 7 -338 25 -23 21 -29 83 -11 116 19 35 63 40 394 40 l321 1 97 127 c54 70 111 146 128 170 l32 42 -459 -1 c-252 -1 -487 -6 -522 -11z"/>
</g>
</svg>